solid OpenSCAD_Model
  facet normal 0.999507 -0 0.0314108
    outer loop
      vertex 7.98421 20.5 0.502324
      vertex 8 22.5 -2.22045e-016
      vertex 7.98421 22.5 0.502324
    endloop
  endfacet
  facet normal 0.999507 6.97459e-018 0.0314108
    outer loop
      vertex 8 22.5 -2.22045e-016
      vertex 7.98421 20.5 0.502324
      vertex 8 20.5 2.22045e-016
    endloop
  endfacet
  facet normal 0.995562 -0 0.094108
    outer loop
      vertex 7.93692 20.5 1.00267
      vertex 7.98421 22.5 0.502324
      vertex 7.93692 22.5 1.00267
    endloop
  endfacet
  facet normal 0.995562 0 0.094108
    outer loop
      vertex 7.98421 22.5 0.502324
      vertex 7.93692 20.5 1.00267
      vertex 7.98421 20.5 0.502324
    endloop
  endfacet
  facet normal 0.987688 -0 0.156435
    outer loop
      vertex 7.8583 20.5 1.49905
      vertex 7.93692 22.5 1.00267
      vertex 7.8583 22.5 1.49905
    endloop
  endfacet
  facet normal 0.987688 0 0.156435
    outer loop
      vertex 7.93692 22.5 1.00267
      vertex 7.8583 20.5 1.49905
      vertex 7.93692 20.5 1.00267
    endloop
  endfacet
  facet normal 0.975917 -0 0.218143
    outer loop
      vertex 7.74867 20.5 1.98952
      vertex 7.8583 22.5 1.49905
      vertex 7.74867 22.5 1.98952
    endloop
  endfacet
  facet normal 0.975917 0 0.218143
    outer loop
      vertex 7.8583 22.5 1.49905
      vertex 7.74867 20.5 1.98952
      vertex 7.8583 20.5 1.49905
    endloop
  endfacet
  facet normal 0.960294 -0 0.278991
    outer loop
      vertex 7.60845 20.5 2.47214
      vertex 7.74867 22.5 1.98952
      vertex 7.60845 22.5 2.47214
    endloop
  endfacet
  facet normal 0.960294 0 0.278991
    outer loop
      vertex 7.74867 22.5 1.98952
      vertex 7.60845 20.5 2.47214
      vertex 7.74867 20.5 1.98952
    endloop
  endfacet
  facet normal 0.940881 -0 0.338738
    outer loop
      vertex 7.43821 20.5 2.945
      vertex 7.60845 22.5 2.47214
      vertex 7.43821 22.5 2.945
    endloop
  endfacet
  facet normal 0.940881 0 0.338738
    outer loop
      vertex 7.60845 22.5 2.47214
      vertex 7.43821 20.5 2.945
      vertex 7.60845 20.5 2.47214
    endloop
  endfacet
  facet normal 0.917755 -0 0.397148
    outer loop
      vertex 7.23862 20.5 3.40623
      vertex 7.43821 22.5 2.945
      vertex 7.23862 22.5 3.40623
    endloop
  endfacet
  facet normal 0.917755 0 0.397148
    outer loop
      vertex 7.43821 22.5 2.945
      vertex 7.23862 20.5 3.40623
      vertex 7.43821 20.5 2.945
    endloop
  endfacet
  facet normal 0.891006 -0 0.453991
    outer loop
      vertex 7.01045 20.5 3.85403
      vertex 7.23862 22.5 3.40623
      vertex 7.01045 22.5 3.85403
    endloop
  endfacet
  facet normal 0.891006 0 0.453991
    outer loop
      vertex 7.23862 22.5 3.40623
      vertex 7.01045 20.5 3.85403
      vertex 7.23862 20.5 3.40623
    endloop
  endfacet
  facet normal 0.860742 -0 0.509041
    outer loop
      vertex 6.75462 20.5 4.28661
      vertex 7.01045 22.5 3.85403
      vertex 6.75462 22.5 4.28661
    endloop
  endfacet
  facet normal 0.860742 0 0.509041
    outer loop
      vertex 7.01045 22.5 3.85403
      vertex 6.75462 20.5 4.28661
      vertex 7.01045 20.5 3.85403
    endloop
  endfacet
  facet normal 0.827081 -0 0.562083
    outer loop
      vertex 6.47214 20.5 4.70228
      vertex 6.75462 22.5 4.28661
      vertex 6.47214 22.5 4.70228
    endloop
  endfacet
  facet normal 0.827081 0 0.562083
    outer loop
      vertex 6.75462 22.5 4.28661
      vertex 6.47214 20.5 4.70228
      vertex 6.75462 20.5 4.28661
    endloop
  endfacet
  facet normal 0.790155 -0 0.612907
    outer loop
      vertex 6.16411 20.5 5.09939
      vertex 6.47214 22.5 4.70228
      vertex 6.16411 22.5 5.09939
    endloop
  endfacet
  facet normal 0.790155 0 0.612907
    outer loop
      vertex 6.47214 22.5 4.70228
      vertex 6.16411 20.5 5.09939
      vertex 6.47214 20.5 4.70228
    endloop
  endfacet
  facet normal 0.750111 -0 0.661312
    outer loop
      vertex 5.83175 20.5 5.47638
      vertex 6.16411 22.5 5.09939
      vertex 5.83175 22.5 5.47638
    endloop
  endfacet
  facet normal 0.750111 0 0.661312
    outer loop
      vertex 6.16411 22.5 5.09939
      vertex 5.83175 20.5 5.47638
      vertex 6.16411 20.5 5.09939
    endloop
  endfacet
  facet normal 0.707107 -0 0.707107
    outer loop
      vertex 5.47638 20.5 5.83175
      vertex 5.83175 22.5 5.47638
      vertex 5.47638 22.5 5.83175
    endloop
  endfacet
  facet normal 0.707107 0 0.707107
    outer loop
      vertex 5.83175 22.5 5.47638
      vertex 5.47638 20.5 5.83175
      vertex 5.83175 20.5 5.47638
    endloop
  endfacet
  facet normal 0.661312 0 0.750111
    outer loop
      vertex 5.09939 22.5 6.16411
      vertex 5.47638 20.5 5.83175
      vertex 5.47638 22.5 5.83175
    endloop
  endfacet
  facet normal 0.661312 0 0.750111
    outer loop
      vertex 5.47638 20.5 5.83175
      vertex 5.09939 22.5 6.16411
      vertex 5.09939 20.5 6.16411
    endloop
  endfacet
  facet normal 0.612907 0 0.790155
    outer loop
      vertex 4.70228 22.5 6.47214
      vertex 5.09939 20.5 6.16411
      vertex 5.09939 22.5 6.16411
    endloop
  endfacet
  facet normal 0.612907 0 0.790155
    outer loop
      vertex 5.09939 20.5 6.16411
      vertex 4.70228 22.5 6.47214
      vertex 4.70228 20.5 6.47214
    endloop
  endfacet
  facet normal 0.562083 0 0.827081
    outer loop
      vertex 4.28661 22.5 6.75462
      vertex 4.70228 20.5 6.47214
      vertex 4.70228 22.5 6.47214
    endloop
  endfacet
  facet normal 0.562083 0 0.827081
    outer loop
      vertex 4.70228 20.5 6.47214
      vertex 4.28661 22.5 6.75462
      vertex 4.28661 20.5 6.75462
    endloop
  endfacet
  facet normal 0.509041 0 0.860742
    outer loop
      vertex 3.85403 22.5 7.01045
      vertex 4.28661 20.5 6.75462
      vertex 4.28661 22.5 6.75462
    endloop
  endfacet
  facet normal 0.509041 0 0.860742
    outer loop
      vertex 4.28661 20.5 6.75462
      vertex 3.85403 22.5 7.01045
      vertex 3.85403 20.5 7.01045
    endloop
  endfacet
  facet normal 0.453991 0 0.891006
    outer loop
      vertex 3.40623 22.5 7.23862
      vertex 3.85403 20.5 7.01045
      vertex 3.85403 22.5 7.01045
    endloop
  endfacet
  facet normal 0.453991 0 0.891006
    outer loop
      vertex 3.85403 20.5 7.01045
      vertex 3.40623 22.5 7.23862
      vertex 3.40623 20.5 7.23862
    endloop
  endfacet
  facet normal 0.397148 0 0.917755
    outer loop
      vertex 2.945 22.5 7.43821
      vertex 3.40623 20.5 7.23862
      vertex 3.40623 22.5 7.23862
    endloop
  endfacet
  facet normal 0.397148 0 0.917755
    outer loop
      vertex 3.40623 20.5 7.23862
      vertex 2.945 22.5 7.43821
      vertex 2.945 20.5 7.43821
    endloop
  endfacet
  facet normal 0.338738 0 0.940881
    outer loop
      vertex 2.47214 22.5 7.60845
      vertex 2.945 20.5 7.43821
      vertex 2.945 22.5 7.43821
    endloop
  endfacet
  facet normal 0.338738 0 0.940881
    outer loop
      vertex 2.945 20.5 7.43821
      vertex 2.47214 22.5 7.60845
      vertex 2.47214 20.5 7.60845
    endloop
  endfacet
  facet normal 0.278991 0 0.960294
    outer loop
      vertex 1.98952 22.5 7.74867
      vertex 2.47214 20.5 7.60845
      vertex 2.47214 22.5 7.60845
    endloop
  endfacet
  facet normal 0.278991 0 0.960294
    outer loop
      vertex 2.47214 20.5 7.60845
      vertex 1.98952 22.5 7.74867
      vertex 1.98952 20.5 7.74867
    endloop
  endfacet
  facet normal 0.218143 0 0.975917
    outer loop
      vertex 1.49905 22.5 7.8583
      vertex 1.98952 20.5 7.74867
      vertex 1.98952 22.5 7.74867
    endloop
  endfacet
  facet normal 0.218143 0 0.975917
    outer loop
      vertex 1.98952 20.5 7.74867
      vertex 1.49905 22.5 7.8583
      vertex 1.49905 20.5 7.8583
    endloop
  endfacet
  facet normal 0.156435 0 0.987688
    outer loop
      vertex 1.00267 22.5 7.93692
      vertex 1.49905 20.5 7.8583
      vertex 1.49905 22.5 7.8583
    endloop
  endfacet
  facet normal 0.156435 0 0.987688
    outer loop
      vertex 1.49905 20.5 7.8583
      vertex 1.00267 22.5 7.93692
      vertex 1.00267 20.5 7.93692
    endloop
  endfacet
  facet normal 0.094108 0 0.995562
    outer loop
      vertex 0.502324 22.5 7.98421
      vertex 1.00267 20.5 7.93692
      vertex 1.00267 22.5 7.93692
    endloop
  endfacet
  facet normal 0.094108 0 0.995562
    outer loop
      vertex 1.00267 20.5 7.93692
      vertex 0.502324 22.5 7.98421
      vertex 0.502324 20.5 7.98421
    endloop
  endfacet
  facet normal 0.0314108 0 0.999507
    outer loop
      vertex 4.89843e-016 22.5 8
      vertex 0.502324 20.5 7.98421
      vertex 0.502324 22.5 7.98421
    endloop
  endfacet
  facet normal 0.0314108 0 0.999507
    outer loop
      vertex 0.502324 20.5 7.98421
      vertex 4.89843e-016 22.5 8
      vertex 4.89843e-016 20.5 8
    endloop
  endfacet
  facet normal -0.0314108 0 0.999507
    outer loop
      vertex -0.502324 22.5 7.98421
      vertex 4.89843e-016 20.5 8
      vertex 4.89843e-016 22.5 8
    endloop
  endfacet
  facet normal -0.0314108 0 0.999507
    outer loop
      vertex 4.89843e-016 20.5 8
      vertex -0.502324 22.5 7.98421
      vertex -0.502324 20.5 7.98421
    endloop
  endfacet
  facet normal -0.094108 0 0.995562
    outer loop
      vertex -1.00267 22.5 7.93692
      vertex -0.502324 20.5 7.98421
      vertex -0.502324 22.5 7.98421
    endloop
  endfacet
  facet normal -0.094108 0 0.995562
    outer loop
      vertex -0.502324 20.5 7.98421
      vertex -1.00267 22.5 7.93692
      vertex -1.00267 20.5 7.93692
    endloop
  endfacet
  facet normal -0.156435 0 0.987688
    outer loop
      vertex -1.49905 22.5 7.8583
      vertex -1.00267 20.5 7.93692
      vertex -1.00267 22.5 7.93692
    endloop
  endfacet
  facet normal -0.156435 0 0.987688
    outer loop
      vertex -1.00267 20.5 7.93692
      vertex -1.49905 22.5 7.8583
      vertex -1.49905 20.5 7.8583
    endloop
  endfacet
  facet normal -0.218143 0 0.975917
    outer loop
      vertex -1.98952 22.5 7.74867
      vertex -1.49905 20.5 7.8583
      vertex -1.49905 22.5 7.8583
    endloop
  endfacet
  facet normal -0.218143 0 0.975917
    outer loop
      vertex -1.49905 20.5 7.8583
      vertex -1.98952 22.5 7.74867
      vertex -1.98952 20.5 7.74867
    endloop
  endfacet
  facet normal -0.278991 0 0.960294
    outer loop
      vertex -2.47214 22.5 7.60845
      vertex -1.98952 20.5 7.74867
      vertex -1.98952 22.5 7.74867
    endloop
  endfacet
  facet normal -0.278991 0 0.960294
    outer loop
      vertex -1.98952 20.5 7.74867
      vertex -2.47214 22.5 7.60845
      vertex -2.47214 20.5 7.60845
    endloop
  endfacet
  facet normal -0.338738 0 0.940881
    outer loop
      vertex -2.945 22.5 7.43821
      vertex -2.47214 20.5 7.60845
      vertex -2.47214 22.5 7.60845
    endloop
  endfacet
  facet normal -0.338738 0 0.940881
    outer loop
      vertex -2.47214 20.5 7.60845
      vertex -2.945 22.5 7.43821
      vertex -2.945 20.5 7.43821
    endloop
  endfacet
  facet normal -0.397148 0 0.917755
    outer loop
      vertex -3.40623 22.5 7.23862
      vertex -2.945 20.5 7.43821
      vertex -2.945 22.5 7.43821
    endloop
  endfacet
  facet normal -0.397148 0 0.917755
    outer loop
      vertex -2.945 20.5 7.43821
      vertex -3.40623 22.5 7.23862
      vertex -3.40623 20.5 7.23862
    endloop
  endfacet
  facet normal -0.453991 0 0.891006
    outer loop
      vertex -3.85403 22.5 7.01045
      vertex -3.40623 20.5 7.23862
      vertex -3.40623 22.5 7.23862
    endloop
  endfacet
  facet normal -0.453991 0 0.891006
    outer loop
      vertex -3.40623 20.5 7.23862
      vertex -3.85403 22.5 7.01045
      vertex -3.85403 20.5 7.01045
    endloop
  endfacet
  facet normal -0.509041 0 0.860742
    outer loop
      vertex -4.28661 22.5 6.75462
      vertex -3.85403 20.5 7.01045
      vertex -3.85403 22.5 7.01045
    endloop
  endfacet
  facet normal -0.509041 0 0.860742
    outer loop
      vertex -3.85403 20.5 7.01045
      vertex -4.28661 22.5 6.75462
      vertex -4.28661 20.5 6.75462
    endloop
  endfacet
  facet normal -0.562083 0 0.827081
    outer loop
      vertex -4.70228 22.5 6.47214
      vertex -4.28661 20.5 6.75462
      vertex -4.28661 22.5 6.75462
    endloop
  endfacet
  facet normal -0.562083 0 0.827081
    outer loop
      vertex -4.28661 20.5 6.75462
      vertex -4.70228 22.5 6.47214
      vertex -4.70228 20.5 6.47214
    endloop
  endfacet
  facet normal -0.612907 0 0.790155
    outer loop
      vertex -5.09939 22.5 6.16411
      vertex -4.70228 20.5 6.47214
      vertex -4.70228 22.5 6.47214
    endloop
  endfacet
  facet normal -0.612907 0 0.790155
    outer loop
      vertex -4.70228 20.5 6.47214
      vertex -5.09939 22.5 6.16411
      vertex -5.09939 20.5 6.16411
    endloop
  endfacet
  facet normal -0.661312 0 0.750111
    outer loop
      vertex -5.47638 22.5 5.83175
      vertex -5.09939 20.5 6.16411
      vertex -5.09939 22.5 6.16411
    endloop
  endfacet
  facet normal -0.661312 0 0.750111
    outer loop
      vertex -5.09939 20.5 6.16411
      vertex -5.47638 22.5 5.83175
      vertex -5.47638 20.5 5.83175
    endloop
  endfacet
  facet normal -0.707107 0 0.707107
    outer loop
      vertex -5.83175 20.5 5.47638
      vertex -5.47638 22.5 5.83175
      vertex -5.83175 22.5 5.47638
    endloop
  endfacet
  facet normal -0.707107 0 0.707107
    outer loop
      vertex -5.47638 22.5 5.83175
      vertex -5.83175 20.5 5.47638
      vertex -5.47638 20.5 5.83175
    endloop
  endfacet
  facet normal -0.750111 0 0.661312
    outer loop
      vertex -6.16411 20.5 5.09939
      vertex -5.83175 22.5 5.47638
      vertex -6.16411 22.5 5.09939
    endloop
  endfacet
  facet normal -0.750111 0 0.661312
    outer loop
      vertex -5.83175 22.5 5.47638
      vertex -6.16411 20.5 5.09939
      vertex -5.83175 20.5 5.47638
    endloop
  endfacet
  facet normal -0.790155 0 0.612907
    outer loop
      vertex -6.47214 20.5 4.70228
      vertex -6.16411 22.5 5.09939
      vertex -6.47214 22.5 4.70228
    endloop
  endfacet
  facet normal -0.790155 0 0.612907
    outer loop
      vertex -6.16411 22.5 5.09939
      vertex -6.47214 20.5 4.70228
      vertex -6.16411 20.5 5.09939
    endloop
  endfacet
  facet normal -0.827081 0 0.562083
    outer loop
      vertex -6.75462 20.5 4.28661
      vertex -6.47214 22.5 4.70228
      vertex -6.75462 22.5 4.28661
    endloop
  endfacet
  facet normal -0.827081 0 0.562083
    outer loop
      vertex -6.47214 22.5 4.70228
      vertex -6.75462 20.5 4.28661
      vertex -6.47214 20.5 4.70228
    endloop
  endfacet
  facet normal -0.860742 0 0.509041
    outer loop
      vertex -7.01045 20.5 3.85403
      vertex -6.75462 22.5 4.28661
      vertex -7.01045 22.5 3.85403
    endloop
  endfacet
  facet normal -0.860742 0 0.509041
    outer loop
      vertex -6.75462 22.5 4.28661
      vertex -7.01045 20.5 3.85403
      vertex -6.75462 20.5 4.28661
    endloop
  endfacet
  facet normal -0.891006 0 0.453991
    outer loop
      vertex -7.23862 20.5 3.40623
      vertex -7.01045 22.5 3.85403
      vertex -7.23862 22.5 3.40623
    endloop
  endfacet
  facet normal -0.891006 0 0.453991
    outer loop
      vertex -7.01045 22.5 3.85403
      vertex -7.23862 20.5 3.40623
      vertex -7.01045 20.5 3.85403
    endloop
  endfacet
  facet normal -0.917755 0 0.397148
    outer loop
      vertex -7.43821 20.5 2.945
      vertex -7.23862 22.5 3.40623
      vertex -7.43821 22.5 2.945
    endloop
  endfacet
  facet normal -0.917755 0 0.397148
    outer loop
      vertex -7.23862 22.5 3.40623
      vertex -7.43821 20.5 2.945
      vertex -7.23862 20.5 3.40623
    endloop
  endfacet
  facet normal -0.940881 0 0.338738
    outer loop
      vertex -7.60845 20.5 2.47214
      vertex -7.43821 22.5 2.945
      vertex -7.60845 22.5 2.47214
    endloop
  endfacet
  facet normal -0.940881 0 0.338738
    outer loop
      vertex -7.43821 22.5 2.945
      vertex -7.60845 20.5 2.47214
      vertex -7.43821 20.5 2.945
    endloop
  endfacet
  facet normal -0.960294 0 0.278991
    outer loop
      vertex -7.74867 20.5 1.98952
      vertex -7.60845 22.5 2.47214
      vertex -7.74867 22.5 1.98952
    endloop
  endfacet
  facet normal -0.960294 0 0.278991
    outer loop
      vertex -7.60845 22.5 2.47214
      vertex -7.74867 20.5 1.98952
      vertex -7.60845 20.5 2.47214
    endloop
  endfacet
  facet normal -0.975917 0 0.218143
    outer loop
      vertex -7.8583 20.5 1.49905
      vertex -7.74867 22.5 1.98952
      vertex -7.8583 22.5 1.49905
    endloop
  endfacet
  facet normal -0.975917 0 0.218143
    outer loop
      vertex -7.74867 22.5 1.98952
      vertex -7.8583 20.5 1.49905
      vertex -7.74867 20.5 1.98952
    endloop
  endfacet
  facet normal -0.987688 0 0.156435
    outer loop
      vertex -7.93692 20.5 1.00267
      vertex -7.8583 22.5 1.49905
      vertex -7.93692 22.5 1.00267
    endloop
  endfacet
  facet normal -0.987688 0 0.156435
    outer loop
      vertex -7.8583 22.5 1.49905
      vertex -7.93692 20.5 1.00267
      vertex -7.8583 20.5 1.49905
    endloop
  endfacet
  facet normal -0.995562 0 0.094108
    outer loop
      vertex -7.98421 20.5 0.502324
      vertex -7.93692 22.5 1.00267
      vertex -7.98421 22.5 0.502324
    endloop
  endfacet
  facet normal -0.995562 0 0.094108
    outer loop
      vertex -7.93692 22.5 1.00267
      vertex -7.98421 20.5 0.502324
      vertex -7.93692 20.5 1.00267
    endloop
  endfacet
  facet normal -0.999507 6.97459e-018 0.0314108
    outer loop
      vertex -8 20.5 1.20173e-015
      vertex -7.98421 22.5 0.502324
      vertex -8 22.5 7.5764e-016
    endloop
  endfacet
  facet normal -0.999507 0 0.0314108
    outer loop
      vertex -7.98421 22.5 0.502324
      vertex -8 20.5 1.20173e-015
      vertex -7.98421 20.5 0.502324
    endloop
  endfacet
  facet normal -0.999507 0 -0.0314108
    outer loop
      vertex -7.98421 20.5 -0.502324
      vertex -8 22.5 7.5764e-016
      vertex -7.98421 22.5 -0.502324
    endloop
  endfacet
  facet normal -0.999507 -6.97459e-018 -0.0314108
    outer loop
      vertex -8 22.5 7.5764e-016
      vertex -7.98421 20.5 -0.502324
      vertex -8 20.5 1.20173e-015
    endloop
  endfacet
  facet normal -0.995562 0 -0.094108
    outer loop
      vertex -7.93692 20.5 -1.00267
      vertex -7.98421 22.5 -0.502324
      vertex -7.93692 22.5 -1.00267
    endloop
  endfacet
  facet normal -0.995562 -0 -0.094108
    outer loop
      vertex -7.98421 22.5 -0.502324
      vertex -7.93692 20.5 -1.00267
      vertex -7.98421 20.5 -0.502324
    endloop
  endfacet
  facet normal -0.987688 0 -0.156435
    outer loop
      vertex -7.8583 20.5 -1.49905
      vertex -7.93692 22.5 -1.00267
      vertex -7.8583 22.5 -1.49905
    endloop
  endfacet
  facet normal -0.987688 -0 -0.156435
    outer loop
      vertex -7.93692 22.5 -1.00267
      vertex -7.8583 20.5 -1.49905
      vertex -7.93692 20.5 -1.00267
    endloop
  endfacet
  facet normal -0.975917 0 -0.218143
    outer loop
      vertex -7.74867 20.5 -1.98952
      vertex -7.8583 22.5 -1.49905
      vertex -7.74867 22.5 -1.98952
    endloop
  endfacet
  facet normal -0.975917 -0 -0.218143
    outer loop
      vertex -7.8583 22.5 -1.49905
      vertex -7.74867 20.5 -1.98952
      vertex -7.8583 20.5 -1.49905
    endloop
  endfacet
  facet normal -0.960294 0 -0.278991
    outer loop
      vertex -7.60845 20.5 -2.47214
      vertex -7.74867 22.5 -1.98952
      vertex -7.60845 22.5 -2.47214
    endloop
  endfacet
  facet normal -0.960294 -0 -0.278991
    outer loop
      vertex -7.74867 22.5 -1.98952
      vertex -7.60845 20.5 -2.47214
      vertex -7.74867 20.5 -1.98952
    endloop
  endfacet
  facet normal -0.940881 0 -0.338738
    outer loop
      vertex -7.43821 20.5 -2.945
      vertex -7.60845 22.5 -2.47214
      vertex -7.43821 22.5 -2.945
    endloop
  endfacet
  facet normal -0.940881 -0 -0.338738
    outer loop
      vertex -7.60845 22.5 -2.47214
      vertex -7.43821 20.5 -2.945
      vertex -7.60845 20.5 -2.47214
    endloop
  endfacet
  facet normal -0.917755 0 -0.397148
    outer loop
      vertex -7.23862 20.5 -3.40623
      vertex -7.43821 22.5 -2.945
      vertex -7.23862 22.5 -3.40623
    endloop
  endfacet
  facet normal -0.917755 -0 -0.397148
    outer loop
      vertex -7.43821 22.5 -2.945
      vertex -7.23862 20.5 -3.40623
      vertex -7.43821 20.5 -2.945
    endloop
  endfacet
  facet normal -0.891006 0 -0.453991
    outer loop
      vertex -7.01045 20.5 -3.85403
      vertex -7.23862 22.5 -3.40623
      vertex -7.01045 22.5 -3.85403
    endloop
  endfacet
  facet normal -0.891006 -0 -0.453991
    outer loop
      vertex -7.23862 22.5 -3.40623
      vertex -7.01045 20.5 -3.85403
      vertex -7.23862 20.5 -3.40623
    endloop
  endfacet
  facet normal -0.860742 0 -0.509041
    outer loop
      vertex -6.75462 20.5 -4.28661
      vertex -7.01045 22.5 -3.85403
      vertex -6.75462 22.5 -4.28661
    endloop
  endfacet
  facet normal -0.860742 -0 -0.509041
    outer loop
      vertex -7.01045 22.5 -3.85403
      vertex -6.75462 20.5 -4.28661
      vertex -7.01045 20.5 -3.85403
    endloop
  endfacet
  facet normal -0.827081 0 -0.562083
    outer loop
      vertex -6.47214 20.5 -4.70228
      vertex -6.75462 22.5 -4.28661
      vertex -6.47214 22.5 -4.70228
    endloop
  endfacet
  facet normal -0.827081 -0 -0.562083
    outer loop
      vertex -6.75462 22.5 -4.28661
      vertex -6.47214 20.5 -4.70228
      vertex -6.75462 20.5 -4.28661
    endloop
  endfacet
  facet normal -0.790155 0 -0.612907
    outer loop
      vertex -6.16411 20.5 -5.09939
      vertex -6.47214 22.5 -4.70228
      vertex -6.16411 22.5 -5.09939
    endloop
  endfacet
  facet normal -0.790155 -0 -0.612907
    outer loop
      vertex -6.47214 22.5 -4.70228
      vertex -6.16411 20.5 -5.09939
      vertex -6.47214 20.5 -4.70228
    endloop
  endfacet
  facet normal -0.750111 0 -0.661312
    outer loop
      vertex -5.83175 20.5 -5.47638
      vertex -6.16411 22.5 -5.09939
      vertex -5.83175 22.5 -5.47638
    endloop
  endfacet
  facet normal -0.750111 -0 -0.661312
    outer loop
      vertex -6.16411 22.5 -5.09939
      vertex -5.83175 20.5 -5.47638
      vertex -6.16411 20.5 -5.09939
    endloop
  endfacet
  facet normal -0.707107 0 -0.707107
    outer loop
      vertex -5.47638 20.5 -5.83175
      vertex -5.83175 22.5 -5.47638
      vertex -5.47638 22.5 -5.83175
    endloop
  endfacet
  facet normal -0.707107 -0 -0.707107
    outer loop
      vertex -5.83175 22.5 -5.47638
      vertex -5.47638 20.5 -5.83175
      vertex -5.83175 20.5 -5.47638
    endloop
  endfacet
  facet normal -0.661312 0 -0.750111
    outer loop
      vertex -5.47638 20.5 -5.83175
      vertex -5.09939 22.5 -6.16411
      vertex -5.09939 20.5 -6.16411
    endloop
  endfacet
  facet normal -0.661312 0 -0.750111
    outer loop
      vertex -5.09939 22.5 -6.16411
      vertex -5.47638 20.5 -5.83175
      vertex -5.47638 22.5 -5.83175
    endloop
  endfacet
  facet normal -0.612907 0 -0.790155
    outer loop
      vertex -5.09939 20.5 -6.16411
      vertex -4.70228 22.5 -6.47214
      vertex -4.70228 20.5 -6.47214
    endloop
  endfacet
  facet normal -0.612907 0 -0.790155
    outer loop
      vertex -4.70228 22.5 -6.47214
      vertex -5.09939 20.5 -6.16411
      vertex -5.09939 22.5 -6.16411
    endloop
  endfacet
  facet normal -0.562083 0 -0.827081
    outer loop
      vertex -4.70228 20.5 -6.47214
      vertex -4.28661 22.5 -6.75462
      vertex -4.28661 20.5 -6.75462
    endloop
  endfacet
  facet normal -0.562083 0 -0.827081
    outer loop
      vertex -4.28661 22.5 -6.75462
      vertex -4.70228 20.5 -6.47214
      vertex -4.70228 22.5 -6.47214
    endloop
  endfacet
  facet normal -0.509041 0 -0.860742
    outer loop
      vertex -4.28661 20.5 -6.75462
      vertex -3.85403 22.5 -7.01045
      vertex -3.85403 20.5 -7.01045
    endloop
  endfacet
  facet normal -0.509041 0 -0.860742
    outer loop
      vertex -3.85403 22.5 -7.01045
      vertex -4.28661 20.5 -6.75462
      vertex -4.28661 22.5 -6.75462
    endloop
  endfacet
  facet normal -0.453991 0 -0.891006
    outer loop
      vertex -3.85403 20.5 -7.01045
      vertex -3.40623 22.5 -7.23862
      vertex -3.40623 20.5 -7.23862
    endloop
  endfacet
  facet normal -0.453991 0 -0.891006
    outer loop
      vertex -3.40623 22.5 -7.23862
      vertex -3.85403 20.5 -7.01045
      vertex -3.85403 22.5 -7.01045
    endloop
  endfacet
  facet normal -0.397148 0 -0.917755
    outer loop
      vertex -3.40623 20.5 -7.23862
      vertex -2.945 22.5 -7.43821
      vertex -2.945 20.5 -7.43821
    endloop
  endfacet
  facet normal -0.397148 0 -0.917755
    outer loop
      vertex -2.945 22.5 -7.43821
      vertex -3.40623 20.5 -7.23862
      vertex -3.40623 22.5 -7.23862
    endloop
  endfacet
  facet normal -0.338738 0 -0.940881
    outer loop
      vertex -2.945 20.5 -7.43821
      vertex -2.47214 22.5 -7.60845
      vertex -2.47214 20.5 -7.60845
    endloop
  endfacet
  facet normal -0.338738 0 -0.940881
    outer loop
      vertex -2.47214 22.5 -7.60845
      vertex -2.945 20.5 -7.43821
      vertex -2.945 22.5 -7.43821
    endloop
  endfacet
  facet normal -0.278991 0 -0.960294
    outer loop
      vertex -2.47214 20.5 -7.60845
      vertex -1.98952 22.5 -7.74867
      vertex -1.98952 20.5 -7.74867
    endloop
  endfacet
  facet normal -0.278991 0 -0.960294
    outer loop
      vertex -1.98952 22.5 -7.74867
      vertex -2.47214 20.5 -7.60845
      vertex -2.47214 22.5 -7.60845
    endloop
  endfacet
  facet normal -0.218143 0 -0.975917
    outer loop
      vertex -1.98952 20.5 -7.74867
      vertex -1.49905 22.5 -7.8583
      vertex -1.49905 20.5 -7.8583
    endloop
  endfacet
  facet normal -0.218143 0 -0.975917
    outer loop
      vertex -1.49905 22.5 -7.8583
      vertex -1.98952 20.5 -7.74867
      vertex -1.98952 22.5 -7.74867
    endloop
  endfacet
  facet normal -0.156435 0 -0.987688
    outer loop
      vertex -1.49905 20.5 -7.8583
      vertex -1.00267 22.5 -7.93692
      vertex -1.00267 20.5 -7.93692
    endloop
  endfacet
  facet normal -0.156435 0 -0.987688
    outer loop
      vertex -1.00267 22.5 -7.93692
      vertex -1.49905 20.5 -7.8583
      vertex -1.49905 22.5 -7.8583
    endloop
  endfacet
  facet normal -0.094108 0 -0.995562
    outer loop
      vertex -1.00267 20.5 -7.93692
      vertex -0.502324 22.5 -7.98421
      vertex -0.502324 20.5 -7.98421
    endloop
  endfacet
  facet normal -0.094108 0 -0.995562
    outer loop
      vertex -0.502324 22.5 -7.98421
      vertex -1.00267 20.5 -7.93692
      vertex -1.00267 22.5 -7.93692
    endloop
  endfacet
  facet normal -0.0314108 0 -0.999507
    outer loop
      vertex -0.502324 20.5 -7.98421
      vertex -1.46953e-015 22.5 -8
      vertex -1.46953e-015 20.5 -8
    endloop
  endfacet
  facet normal -0.0314108 0 -0.999507
    outer loop
      vertex -1.46953e-015 22.5 -8
      vertex -0.502324 20.5 -7.98421
      vertex -0.502324 22.5 -7.98421
    endloop
  endfacet
  facet normal 0.0314108 0 -0.999507
    outer loop
      vertex -1.46953e-015 20.5 -8
      vertex 0.502324 22.5 -7.98421
      vertex 0.502324 20.5 -7.98421
    endloop
  endfacet
  facet normal 0.0314108 0 -0.999507
    outer loop
      vertex 0.502324 22.5 -7.98421
      vertex -1.46953e-015 20.5 -8
      vertex -1.46953e-015 22.5 -8
    endloop
  endfacet
  facet normal 0.094108 0 -0.995562
    outer loop
      vertex 0.502324 20.5 -7.98421
      vertex 1.00267 22.5 -7.93692
      vertex 1.00267 20.5 -7.93692
    endloop
  endfacet
  facet normal 0.094108 0 -0.995562
    outer loop
      vertex 1.00267 22.5 -7.93692
      vertex 0.502324 20.5 -7.98421
      vertex 0.502324 22.5 -7.98421
    endloop
  endfacet
  facet normal 0.156435 0 -0.987688
    outer loop
      vertex 1.00267 20.5 -7.93692
      vertex 1.49905 22.5 -7.8583
      vertex 1.49905 20.5 -7.8583
    endloop
  endfacet
  facet normal 0.156435 0 -0.987688
    outer loop
      vertex 1.49905 22.5 -7.8583
      vertex 1.00267 20.5 -7.93692
      vertex 1.00267 22.5 -7.93692
    endloop
  endfacet
  facet normal 0.218143 0 -0.975917
    outer loop
      vertex 1.49905 20.5 -7.8583
      vertex 1.98952 22.5 -7.74867
      vertex 1.98952 20.5 -7.74867
    endloop
  endfacet
  facet normal 0.218143 0 -0.975917
    outer loop
      vertex 1.98952 22.5 -7.74867
      vertex 1.49905 20.5 -7.8583
      vertex 1.49905 22.5 -7.8583
    endloop
  endfacet
  facet normal 0.278991 0 -0.960294
    outer loop
      vertex 1.98952 20.5 -7.74867
      vertex 2.47214 22.5 -7.60845
      vertex 2.47214 20.5 -7.60845
    endloop
  endfacet
  facet normal 0.278991 0 -0.960294
    outer loop
      vertex 2.47214 22.5 -7.60845
      vertex 1.98952 20.5 -7.74867
      vertex 1.98952 22.5 -7.74867
    endloop
  endfacet
  facet normal 0.338738 0 -0.940881
    outer loop
      vertex 2.47214 20.5 -7.60845
      vertex 2.945 22.5 -7.43821
      vertex 2.945 20.5 -7.43821
    endloop
  endfacet
  facet normal 0.338738 0 -0.940881
    outer loop
      vertex 2.945 22.5 -7.43821
      vertex 2.47214 20.5 -7.60845
      vertex 2.47214 22.5 -7.60845
    endloop
  endfacet
  facet normal 0.397148 0 -0.917755
    outer loop
      vertex 2.945 20.5 -7.43821
      vertex 3.40623 22.5 -7.23862
      vertex 3.40623 20.5 -7.23862
    endloop
  endfacet
  facet normal 0.397148 0 -0.917755
    outer loop
      vertex 3.40623 22.5 -7.23862
      vertex 2.945 20.5 -7.43821
      vertex 2.945 22.5 -7.43821
    endloop
  endfacet
  facet normal 0.453991 0 -0.891006
    outer loop
      vertex 3.40623 20.5 -7.23862
      vertex 3.85403 22.5 -7.01045
      vertex 3.85403 20.5 -7.01045
    endloop
  endfacet
  facet normal 0.453991 0 -0.891006
    outer loop
      vertex 3.85403 22.5 -7.01045
      vertex 3.40623 20.5 -7.23862
      vertex 3.40623 22.5 -7.23862
    endloop
  endfacet
  facet normal 0.509041 0 -0.860742
    outer loop
      vertex 3.85403 20.5 -7.01045
      vertex 4.28661 22.5 -6.75462
      vertex 4.28661 20.5 -6.75462
    endloop
  endfacet
  facet normal 0.509041 0 -0.860742
    outer loop
      vertex 4.28661 22.5 -6.75462
      vertex 3.85403 20.5 -7.01045
      vertex 3.85403 22.5 -7.01045
    endloop
  endfacet
  facet normal 0.562083 0 -0.827081
    outer loop
      vertex 4.28661 20.5 -6.75462
      vertex 4.70228 22.5 -6.47214
      vertex 4.70228 20.5 -6.47214
    endloop
  endfacet
  facet normal 0.562083 0 -0.827081
    outer loop
      vertex 4.70228 22.5 -6.47214
      vertex 4.28661 20.5 -6.75462
      vertex 4.28661 22.5 -6.75462
    endloop
  endfacet
  facet normal 0.612907 0 -0.790155
    outer loop
      vertex 4.70228 20.5 -6.47214
      vertex 5.09939 22.5 -6.16411
      vertex 5.09939 20.5 -6.16411
    endloop
  endfacet
  facet normal 0.612907 0 -0.790155
    outer loop
      vertex 5.09939 22.5 -6.16411
      vertex 4.70228 20.5 -6.47214
      vertex 4.70228 22.5 -6.47214
    endloop
  endfacet
  facet normal 0.661312 0 -0.750111
    outer loop
      vertex 5.09939 20.5 -6.16411
      vertex 5.47638 22.5 -5.83175
      vertex 5.47638 20.5 -5.83175
    endloop
  endfacet
  facet normal 0.661312 0 -0.750111
    outer loop
      vertex 5.47638 22.5 -5.83175
      vertex 5.09939 20.5 -6.16411
      vertex 5.09939 22.5 -6.16411
    endloop
  endfacet
  facet normal 0.707107 0 -0.707107
    outer loop
      vertex 5.83175 20.5 -5.47638
      vertex 5.47638 22.5 -5.83175
      vertex 5.83175 22.5 -5.47638
    endloop
  endfacet
  facet normal 0.707107 0 -0.707107
    outer loop
      vertex 5.47638 22.5 -5.83175
      vertex 5.83175 20.5 -5.47638
      vertex 5.47638 20.5 -5.83175
    endloop
  endfacet
  facet normal 0.750111 0 -0.661312
    outer loop
      vertex 6.16411 20.5 -5.09939
      vertex 5.83175 22.5 -5.47638
      vertex 6.16411 22.5 -5.09939
    endloop
  endfacet
  facet normal 0.750111 0 -0.661312
    outer loop
      vertex 5.83175 22.5 -5.47638
      vertex 6.16411 20.5 -5.09939
      vertex 5.83175 20.5 -5.47638
    endloop
  endfacet
  facet normal 0.790155 0 -0.612907
    outer loop
      vertex 6.47214 20.5 -4.70228
      vertex 6.16411 22.5 -5.09939
      vertex 6.47214 22.5 -4.70228
    endloop
  endfacet
  facet normal 0.790155 0 -0.612907
    outer loop
      vertex 6.16411 22.5 -5.09939
      vertex 6.47214 20.5 -4.70228
      vertex 6.16411 20.5 -5.09939
    endloop
  endfacet
  facet normal 0.827081 0 -0.562083
    outer loop
      vertex 6.75462 20.5 -4.28661
      vertex 6.47214 22.5 -4.70228
      vertex 6.75462 22.5 -4.28661
    endloop
  endfacet
  facet normal 0.827081 0 -0.562083
    outer loop
      vertex 6.47214 22.5 -4.70228
      vertex 6.75462 20.5 -4.28661
      vertex 6.47214 20.5 -4.70228
    endloop
  endfacet
  facet normal 0.860742 0 -0.509041
    outer loop
      vertex 7.01045 20.5 -3.85403
      vertex 6.75462 22.5 -4.28661
      vertex 7.01045 22.5 -3.85403
    endloop
  endfacet
  facet normal 0.860742 0 -0.509041
    outer loop
      vertex 6.75462 22.5 -4.28661
      vertex 7.01045 20.5 -3.85403
      vertex 6.75462 20.5 -4.28661
    endloop
  endfacet
  facet normal 0.891006 0 -0.453991
    outer loop
      vertex 7.23862 20.5 -3.40623
      vertex 7.01045 22.5 -3.85403
      vertex 7.23862 22.5 -3.40623
    endloop
  endfacet
  facet normal 0.891006 0 -0.453991
    outer loop
      vertex 7.01045 22.5 -3.85403
      vertex 7.23862 20.5 -3.40623
      vertex 7.01045 20.5 -3.85403
    endloop
  endfacet
  facet normal 0.917755 0 -0.397148
    outer loop
      vertex 7.43821 20.5 -2.945
      vertex 7.23862 22.5 -3.40623
      vertex 7.43821 22.5 -2.945
    endloop
  endfacet
  facet normal 0.917755 0 -0.397148
    outer loop
      vertex 7.23862 22.5 -3.40623
      vertex 7.43821 20.5 -2.945
      vertex 7.23862 20.5 -3.40623
    endloop
  endfacet
  facet normal 0.940881 0 -0.338738
    outer loop
      vertex 7.60845 20.5 -2.47214
      vertex 7.43821 22.5 -2.945
      vertex 7.60845 22.5 -2.47214
    endloop
  endfacet
  facet normal 0.940881 0 -0.338738
    outer loop
      vertex 7.43821 22.5 -2.945
      vertex 7.60845 20.5 -2.47214
      vertex 7.43821 20.5 -2.945
    endloop
  endfacet
  facet normal 0.960294 0 -0.278991
    outer loop
      vertex 7.74867 20.5 -1.98952
      vertex 7.60845 22.5 -2.47214
      vertex 7.74867 22.5 -1.98952
    endloop
  endfacet
  facet normal 0.960294 0 -0.278991
    outer loop
      vertex 7.60845 22.5 -2.47214
      vertex 7.74867 20.5 -1.98952
      vertex 7.60845 20.5 -2.47214
    endloop
  endfacet
  facet normal 0.975917 0 -0.218143
    outer loop
      vertex 7.8583 20.5 -1.49905
      vertex 7.74867 22.5 -1.98952
      vertex 7.8583 22.5 -1.49905
    endloop
  endfacet
  facet normal 0.975917 0 -0.218143
    outer loop
      vertex 7.74867 22.5 -1.98952
      vertex 7.8583 20.5 -1.49905
      vertex 7.74867 20.5 -1.98952
    endloop
  endfacet
  facet normal 0.987688 0 -0.156435
    outer loop
      vertex 7.93692 20.5 -1.00267
      vertex 7.8583 22.5 -1.49905
      vertex 7.93692 22.5 -1.00267
    endloop
  endfacet
  facet normal 0.987688 0 -0.156435
    outer loop
      vertex 7.8583 22.5 -1.49905
      vertex 7.93692 20.5 -1.00267
      vertex 7.8583 20.5 -1.49905
    endloop
  endfacet
  facet normal 0.995562 0 -0.094108
    outer loop
      vertex 7.98421 20.5 -0.502324
      vertex 7.93692 22.5 -1.00267
      vertex 7.98421 22.5 -0.502324
    endloop
  endfacet
  facet normal 0.995562 0 -0.094108
    outer loop
      vertex 7.93692 22.5 -1.00267
      vertex 7.98421 20.5 -0.502324
      vertex 7.93692 20.5 -1.00267
    endloop
  endfacet
  facet normal 0.999507 -6.97459e-018 -0.0314108
    outer loop
      vertex 8 20.5 2.22045e-016
      vertex 7.98421 22.5 -0.502324
      vertex 8 22.5 -2.22045e-016
    endloop
  endfacet
  facet normal 0.999507 0 -0.0314108
    outer loop
      vertex 7.98421 22.5 -0.502324
      vertex 8 20.5 2.22045e-016
      vertex 7.98421 20.5 -0.502324
    endloop
  endfacet
  facet normal 0 1 0
    outer loop
      vertex 0.502324 22.5 7.98421
      vertex -0.502324 22.5 7.98421
      vertex 4.89843e-016 22.5 8
    endloop
  endfacet
  facet normal 0 1 0
    outer loop
      vertex 1.00267 22.5 7.93692
      vertex -0.502324 22.5 7.98421
      vertex 0.502324 22.5 7.98421
    endloop
  endfacet
  facet normal 0 1 0
    outer loop
      vertex 1.00267 22.5 7.93692
      vertex -1.00267 22.5 7.93692
      vertex -0.502324 22.5 7.98421
    endloop
  endfacet
  facet normal 0 1 0
    outer loop
      vertex 1.49905 22.5 7.8583
      vertex -1.00267 22.5 7.93692
      vertex 1.00267 22.5 7.93692
    endloop
  endfacet
  facet normal 0 1 0
    outer loop
      vertex 1.49905 22.5 7.8583
      vertex -1.49905 22.5 7.8583
      vertex -1.00267 22.5 7.93692
    endloop
  endfacet
  facet normal 0 1 0
    outer loop
      vertex 1.98952 22.5 7.74867
      vertex -1.49905 22.5 7.8583
      vertex 1.49905 22.5 7.8583
    endloop
  endfacet
  facet normal 0 1 0
    outer loop
      vertex 1.98952 22.5 7.74867
      vertex -1.98952 22.5 7.74867
      vertex -1.49905 22.5 7.8583
    endloop
  endfacet
  facet normal 0 1 0
    outer loop
      vertex 2.47214 22.5 7.60845
      vertex -1.98952 22.5 7.74867
      vertex 1.98952 22.5 7.74867
    endloop
  endfacet
  facet normal 0 1 0
    outer loop
      vertex 2.47214 22.5 7.60845
      vertex -2.47214 22.5 7.60845
      vertex -1.98952 22.5 7.74867
    endloop
  endfacet
  facet normal 0 1 0
    outer loop
      vertex 2.945 22.5 7.43821
      vertex -2.47214 22.5 7.60845
      vertex 2.47214 22.5 7.60845
    endloop
  endfacet
  facet normal 0 1 0
    outer loop
      vertex 2.945 22.5 7.43821
      vertex -2.945 22.5 7.43821
      vertex -2.47214 22.5 7.60845
    endloop
  endfacet
  facet normal 0 1 0
    outer loop
      vertex 3.40623 22.5 7.23862
      vertex -2.945 22.5 7.43821
      vertex 2.945 22.5 7.43821
    endloop
  endfacet
  facet normal 0 1 0
    outer loop
      vertex 3.40623 22.5 7.23862
      vertex -3.40623 22.5 7.23862
      vertex -2.945 22.5 7.43821
    endloop
  endfacet
  facet normal 0 1 0
    outer loop
      vertex 3.85403 22.5 7.01045
      vertex -3.40623 22.5 7.23862
      vertex 3.40623 22.5 7.23862
    endloop
  endfacet
  facet normal 0 1 0
    outer loop
      vertex 3.85403 22.5 7.01045
      vertex -3.85403 22.5 7.01045
      vertex -3.40623 22.5 7.23862
    endloop
  endfacet
  facet normal 0 1 0
    outer loop
      vertex 4.28661 22.5 6.75462
      vertex -3.85403 22.5 7.01045
      vertex 3.85403 22.5 7.01045
    endloop
  endfacet
  facet normal 0 1 0
    outer loop
      vertex 4.28661 22.5 6.75462
      vertex -4.28661 22.5 6.75462
      vertex -3.85403 22.5 7.01045
    endloop
  endfacet
  facet normal 0 1 0
    outer loop
      vertex 4.70228 22.5 6.47214
      vertex -4.28661 22.5 6.75462
      vertex 4.28661 22.5 6.75462
    endloop
  endfacet
  facet normal 0 1 0
    outer loop
      vertex 4.70228 22.5 6.47214
      vertex -4.70228 22.5 6.47214
      vertex -4.28661 22.5 6.75462
    endloop
  endfacet
  facet normal 0 1 0
    outer loop
      vertex 5.09939 22.5 6.16411
      vertex -4.70228 22.5 6.47214
      vertex 4.70228 22.5 6.47214
    endloop
  endfacet
  facet normal 0 1 0
    outer loop
      vertex 5.09939 22.5 6.16411
      vertex -5.09939 22.5 6.16411
      vertex -4.70228 22.5 6.47214
    endloop
  endfacet
  facet normal 0 1 0
    outer loop
      vertex 5.47638 22.5 5.83175
      vertex -5.09939 22.5 6.16411
      vertex 5.09939 22.5 6.16411
    endloop
  endfacet
  facet normal 0 1 0
    outer loop
      vertex 5.47638 22.5 5.83175
      vertex -5.47638 22.5 5.83175
      vertex -5.09939 22.5 6.16411
    endloop
  endfacet
  facet normal 0 1 0
    outer loop
      vertex 5.83175 22.5 5.47638
      vertex -5.47638 22.5 5.83175
      vertex 5.47638 22.5 5.83175
    endloop
  endfacet
  facet normal 0 1 0
    outer loop
      vertex 5.83175 22.5 5.47638
      vertex -5.83175 22.5 5.47638
      vertex -5.47638 22.5 5.83175
    endloop
  endfacet
  facet normal 0 1 0
    outer loop
      vertex 6.16411 22.5 5.09939
      vertex -5.83175 22.5 5.47638
      vertex 5.83175 22.5 5.47638
    endloop
  endfacet
  facet normal 0 1 0
    outer loop
      vertex 6.16411 22.5 5.09939
      vertex -6.16411 22.5 5.09939
      vertex -5.83175 22.5 5.47638
    endloop
  endfacet
  facet normal 0 1 0
    outer loop
      vertex 6.47214 22.5 4.70228
      vertex -6.16411 22.5 5.09939
      vertex 6.16411 22.5 5.09939
    endloop
  endfacet
  facet normal 0 1 0
    outer loop
      vertex 6.47214 22.5 4.70228
      vertex -6.47214 22.5 4.70228
      vertex -6.16411 22.5 5.09939
    endloop
  endfacet
  facet normal 0 1 0
    outer loop
      vertex 6.75462 22.5 4.28661
      vertex -6.47214 22.5 4.70228
      vertex 6.47214 22.5 4.70228
    endloop
  endfacet
  facet normal 0 1 0
    outer loop
      vertex 6.75462 22.5 4.28661
      vertex -6.75462 22.5 4.28661
      vertex -6.47214 22.5 4.70228
    endloop
  endfacet
  facet normal 0 1 0
    outer loop
      vertex 7.01045 22.5 3.85403
      vertex -6.75462 22.5 4.28661
      vertex 6.75462 22.5 4.28661
    endloop
  endfacet
  facet normal 0 1 0
    outer loop
      vertex 7.01045 22.5 3.85403
      vertex -7.01045 22.5 3.85403
      vertex -6.75462 22.5 4.28661
    endloop
  endfacet
  facet normal 0 1 0
    outer loop
      vertex 7.23862 22.5 3.40623
      vertex -7.01045 22.5 3.85403
      vertex 7.01045 22.5 3.85403
    endloop
  endfacet
  facet normal 0 1 0
    outer loop
      vertex 7.23862 22.5 3.40623
      vertex -7.23862 22.5 3.40623
      vertex -7.01045 22.5 3.85403
    endloop
  endfacet
  facet normal 0 1 0
    outer loop
      vertex 7.43821 22.5 2.945
      vertex -7.23862 22.5 3.40623
      vertex 7.23862 22.5 3.40623
    endloop
  endfacet
  facet normal 0 1 0
    outer loop
      vertex 7.43821 22.5 2.945
      vertex -7.43821 22.5 2.945
      vertex -7.23862 22.5 3.40623
    endloop
  endfacet
  facet normal 0 1 0
    outer loop
      vertex 7.60845 22.5 2.47214
      vertex -7.43821 22.5 2.945
      vertex 7.43821 22.5 2.945
    endloop
  endfacet
  facet normal 0 1 0
    outer loop
      vertex 7.60845 22.5 2.47214
      vertex -7.60845 22.5 2.47214
      vertex -7.43821 22.5 2.945
    endloop
  endfacet
  facet normal 0 1 0
    outer loop
      vertex 7.74867 22.5 1.98952
      vertex -7.60845 22.5 2.47214
      vertex 7.60845 22.5 2.47214
    endloop
  endfacet
  facet normal 0 1 0
    outer loop
      vertex 7.74867 22.5 1.98952
      vertex -7.74867 22.5 1.98952
      vertex -7.60845 22.5 2.47214
    endloop
  endfacet
  facet normal 0 1 0
    outer loop
      vertex 7.8583 22.5 1.49905
      vertex -7.74867 22.5 1.98952
      vertex 7.74867 22.5 1.98952
    endloop
  endfacet
  facet normal 0 1 0
    outer loop
      vertex 7.8583 22.5 1.49905
      vertex -7.8583 22.5 1.49905
      vertex -7.74867 22.5 1.98952
    endloop
  endfacet
  facet normal 0 1 0
    outer loop
      vertex 7.93692 22.5 1.00267
      vertex -7.8583 22.5 1.49905
      vertex 7.8583 22.5 1.49905
    endloop
  endfacet
  facet normal 0 1 0
    outer loop
      vertex 7.93692 22.5 1.00267
      vertex -7.93692 22.5 1.00267
      vertex -7.8583 22.5 1.49905
    endloop
  endfacet
  facet normal 0 1 0
    outer loop
      vertex 7.98421 22.5 0.502324
      vertex -7.93692 22.5 1.00267
      vertex 7.93692 22.5 1.00267
    endloop
  endfacet
  facet normal 0 1 0
    outer loop
      vertex 7.98421 22.5 0.502324
      vertex -7.98421 22.5 0.502324
      vertex -7.93692 22.5 1.00267
    endloop
  endfacet
  facet normal 0 1 0
    outer loop
      vertex 7.98421 22.5 0.502324
      vertex -8 22.5 7.5764e-016
      vertex -7.98421 22.5 0.502324
    endloop
  endfacet
  facet normal 0 1 0
    outer loop
      vertex 8 22.5 -2.22045e-016
      vertex -8 22.5 7.5764e-016
      vertex 7.98421 22.5 0.502324
    endloop
  endfacet
  facet normal 0 1 -0
    outer loop
      vertex 7.98421 22.5 -0.502324
      vertex -8 22.5 7.5764e-016
      vertex 8 22.5 -2.22045e-016
    endloop
  endfacet
  facet normal 0 1 0
    outer loop
      vertex 7.98421 22.5 -0.502324
      vertex -7.98421 22.5 -0.502324
      vertex -8 22.5 7.5764e-016
    endloop
  endfacet
  facet normal 0 1 -0
    outer loop
      vertex 7.93692 22.5 -1.00267
      vertex -7.98421 22.5 -0.502324
      vertex 7.98421 22.5 -0.502324
    endloop
  endfacet
  facet normal 0 1 0
    outer loop
      vertex 7.93692 22.5 -1.00267
      vertex -7.93692 22.5 -1.00267
      vertex -7.98421 22.5 -0.502324
    endloop
  endfacet
  facet normal 0 1 -0
    outer loop
      vertex 7.8583 22.5 -1.49905
      vertex -7.93692 22.5 -1.00267
      vertex 7.93692 22.5 -1.00267
    endloop
  endfacet
  facet normal 0 1 0
    outer loop
      vertex 7.8583 22.5 -1.49905
      vertex -7.8583 22.5 -1.49905
      vertex -7.93692 22.5 -1.00267
    endloop
  endfacet
  facet normal 0 1 -0
    outer loop
      vertex 7.74867 22.5 -1.98952
      vertex -7.8583 22.5 -1.49905
      vertex 7.8583 22.5 -1.49905
    endloop
  endfacet
  facet normal 0 1 0
    outer loop
      vertex 7.74867 22.5 -1.98952
      vertex -7.74867 22.5 -1.98952
      vertex -7.8583 22.5 -1.49905
    endloop
  endfacet
  facet normal 0 1 -0
    outer loop
      vertex 7.60845 22.5 -2.47214
      vertex -7.74867 22.5 -1.98952
      vertex 7.74867 22.5 -1.98952
    endloop
  endfacet
  facet normal 0 1 0
    outer loop
      vertex 7.60845 22.5 -2.47214
      vertex -7.60845 22.5 -2.47214
      vertex -7.74867 22.5 -1.98952
    endloop
  endfacet
  facet normal 0 1 -0
    outer loop
      vertex 7.43821 22.5 -2.945
      vertex -7.60845 22.5 -2.47214
      vertex 7.60845 22.5 -2.47214
    endloop
  endfacet
  facet normal 0 1 0
    outer loop
      vertex 7.43821 22.5 -2.945
      vertex -7.43821 22.5 -2.945
      vertex -7.60845 22.5 -2.47214
    endloop
  endfacet
  facet normal 0 1 -0
    outer loop
      vertex 7.23862 22.5 -3.40623
      vertex -7.43821 22.5 -2.945
      vertex 7.43821 22.5 -2.945
    endloop
  endfacet
  facet normal 0 1 0
    outer loop
      vertex 7.23862 22.5 -3.40623
      vertex -7.23862 22.5 -3.40623
      vertex -7.43821 22.5 -2.945
    endloop
  endfacet
  facet normal 0 1 -0
    outer loop
      vertex 7.01045 22.5 -3.85403
      vertex -7.23862 22.5 -3.40623
      vertex 7.23862 22.5 -3.40623
    endloop
  endfacet
  facet normal 0 1 0
    outer loop
      vertex 7.01045 22.5 -3.85403
      vertex -7.01045 22.5 -3.85403
      vertex -7.23862 22.5 -3.40623
    endloop
  endfacet
  facet normal 0 1 -0
    outer loop
      vertex 6.75462 22.5 -4.28661
      vertex -7.01045 22.5 -3.85403
      vertex 7.01045 22.5 -3.85403
    endloop
  endfacet
  facet normal 0 1 0
    outer loop
      vertex 6.75462 22.5 -4.28661
      vertex -6.75462 22.5 -4.28661
      vertex -7.01045 22.5 -3.85403
    endloop
  endfacet
  facet normal 0 1 -0
    outer loop
      vertex 6.47214 22.5 -4.70228
      vertex -6.75462 22.5 -4.28661
      vertex 6.75462 22.5 -4.28661
    endloop
  endfacet
  facet normal 0 1 0
    outer loop
      vertex 6.47214 22.5 -4.70228
      vertex -6.47214 22.5 -4.70228
      vertex -6.75462 22.5 -4.28661
    endloop
  endfacet
  facet normal 0 1 -0
    outer loop
      vertex 6.16411 22.5 -5.09939
      vertex -6.47214 22.5 -4.70228
      vertex 6.47214 22.5 -4.70228
    endloop
  endfacet
  facet normal 0 1 0
    outer loop
      vertex 6.16411 22.5 -5.09939
      vertex -6.16411 22.5 -5.09939
      vertex -6.47214 22.5 -4.70228
    endloop
  endfacet
  facet normal 0 1 -0
    outer loop
      vertex 5.83175 22.5 -5.47638
      vertex -6.16411 22.5 -5.09939
      vertex 6.16411 22.5 -5.09939
    endloop
  endfacet
  facet normal 0 1 0
    outer loop
      vertex 5.83175 22.5 -5.47638
      vertex -5.83175 22.5 -5.47638
      vertex -6.16411 22.5 -5.09939
    endloop
  endfacet
  facet normal 0 1 -0
    outer loop
      vertex 5.47638 22.5 -5.83175
      vertex -5.83175 22.5 -5.47638
      vertex 5.83175 22.5 -5.47638
    endloop
  endfacet
  facet normal 0 1 0
    outer loop
      vertex 5.47638 22.5 -5.83175
      vertex -5.47638 22.5 -5.83175
      vertex -5.83175 22.5 -5.47638
    endloop
  endfacet
  facet normal 0 1 -0
    outer loop
      vertex 5.09939 22.5 -6.16411
      vertex -5.47638 22.5 -5.83175
      vertex 5.47638 22.5 -5.83175
    endloop
  endfacet
  facet normal 0 1 0
    outer loop
      vertex 5.09939 22.5 -6.16411
      vertex -5.09939 22.5 -6.16411
      vertex -5.47638 22.5 -5.83175
    endloop
  endfacet
  facet normal 0 1 -0
    outer loop
      vertex 4.70228 22.5 -6.47214
      vertex -5.09939 22.5 -6.16411
      vertex 5.09939 22.5 -6.16411
    endloop
  endfacet
  facet normal 0 1 0
    outer loop
      vertex 4.70228 22.5 -6.47214
      vertex -4.70228 22.5 -6.47214
      vertex -5.09939 22.5 -6.16411
    endloop
  endfacet
  facet normal 0 1 -0
    outer loop
      vertex 4.28661 22.5 -6.75462
      vertex -4.70228 22.5 -6.47214
      vertex 4.70228 22.5 -6.47214
    endloop
  endfacet
  facet normal 0 1 0
    outer loop
      vertex 4.28661 22.5 -6.75462
      vertex -4.28661 22.5 -6.75462
      vertex -4.70228 22.5 -6.47214
    endloop
  endfacet
  facet normal 0 1 -0
    outer loop
      vertex 3.85403 22.5 -7.01045
      vertex -4.28661 22.5 -6.75462
      vertex 4.28661 22.5 -6.75462
    endloop
  endfacet
  facet normal 0 1 0
    outer loop
      vertex 3.85403 22.5 -7.01045
      vertex -3.85403 22.5 -7.01045
      vertex -4.28661 22.5 -6.75462
    endloop
  endfacet
  facet normal 0 1 -0
    outer loop
      vertex 3.40623 22.5 -7.23862
      vertex -3.85403 22.5 -7.01045
      vertex 3.85403 22.5 -7.01045
    endloop
  endfacet
  facet normal 0 1 0
    outer loop
      vertex 3.40623 22.5 -7.23862
      vertex -3.40623 22.5 -7.23862
      vertex -3.85403 22.5 -7.01045
    endloop
  endfacet
  facet normal 0 1 -0
    outer loop
      vertex 2.945 22.5 -7.43821
      vertex -3.40623 22.5 -7.23862
      vertex 3.40623 22.5 -7.23862
    endloop
  endfacet
  facet normal 0 1 0
    outer loop
      vertex 2.945 22.5 -7.43821
      vertex -2.945 22.5 -7.43821
      vertex -3.40623 22.5 -7.23862
    endloop
  endfacet
  facet normal 0 1 -0
    outer loop
      vertex 2.47214 22.5 -7.60845
      vertex -2.945 22.5 -7.43821
      vertex 2.945 22.5 -7.43821
    endloop
  endfacet
  facet normal 0 1 0
    outer loop
      vertex 2.47214 22.5 -7.60845
      vertex -2.47214 22.5 -7.60845
      vertex -2.945 22.5 -7.43821
    endloop
  endfacet
  facet normal 0 1 -0
    outer loop
      vertex 1.98952 22.5 -7.74867
      vertex -2.47214 22.5 -7.60845
      vertex 2.47214 22.5 -7.60845
    endloop
  endfacet
  facet normal 0 1 0
    outer loop
      vertex 1.98952 22.5 -7.74867
      vertex -1.98952 22.5 -7.74867
      vertex -2.47214 22.5 -7.60845
    endloop
  endfacet
  facet normal 0 1 -0
    outer loop
      vertex 1.49905 22.5 -7.8583
      vertex -1.98952 22.5 -7.74867
      vertex 1.98952 22.5 -7.74867
    endloop
  endfacet
  facet normal 0 1 0
    outer loop
      vertex 1.49905 22.5 -7.8583
      vertex -1.49905 22.5 -7.8583
      vertex -1.98952 22.5 -7.74867
    endloop
  endfacet
  facet normal 0 1 -0
    outer loop
      vertex 1.00267 22.5 -7.93692
      vertex -1.49905 22.5 -7.8583
      vertex 1.49905 22.5 -7.8583
    endloop
  endfacet
  facet normal 0 1 0
    outer loop
      vertex 1.00267 22.5 -7.93692
      vertex -1.00267 22.5 -7.93692
      vertex -1.49905 22.5 -7.8583
    endloop
  endfacet
  facet normal 0 1 -0
    outer loop
      vertex 0.502324 22.5 -7.98421
      vertex -1.00267 22.5 -7.93692
      vertex 1.00267 22.5 -7.93692
    endloop
  endfacet
  facet normal 0 1 0
    outer loop
      vertex 0.502324 22.5 -7.98421
      vertex -0.502324 22.5 -7.98421
      vertex -1.00267 22.5 -7.93692
    endloop
  endfacet
  facet normal -0 1 0
    outer loop
      vertex -0.502324 22.5 -7.98421
      vertex 0.502324 22.5 -7.98421
      vertex -1.46953e-015 22.5 -8
    endloop
  endfacet
  facet normal 0 -1 0
    outer loop
      vertex -0.502324 20.5 7.98421
      vertex 0.502324 20.5 7.98421
      vertex 4.89843e-016 20.5 8
    endloop
  endfacet
  facet normal 0 -1 0
    outer loop
      vertex -1.00267 20.5 7.93692
      vertex 0.502324 20.5 7.98421
      vertex -0.502324 20.5 7.98421
    endloop
  endfacet
  facet normal 0 -1 0
    outer loop
      vertex -1.00267 20.5 7.93692
      vertex 1.00267 20.5 7.93692
      vertex 0.502324 20.5 7.98421
    endloop
  endfacet
  facet normal 0 -1 0
    outer loop
      vertex -1.49905 20.5 7.8583
      vertex 1.00267 20.5 7.93692
      vertex -1.00267 20.5 7.93692
    endloop
  endfacet
  facet normal 0 -1 0
    outer loop
      vertex -1.49905 20.5 7.8583
      vertex 1.49905 20.5 7.8583
      vertex 1.00267 20.5 7.93692
    endloop
  endfacet
  facet normal 0 -1 0
    outer loop
      vertex -1.98952 20.5 7.74867
      vertex 1.49905 20.5 7.8583
      vertex -1.49905 20.5 7.8583
    endloop
  endfacet
  facet normal 0 -1 0
    outer loop
      vertex -1.98952 20.5 7.74867
      vertex 1.98952 20.5 7.74867
      vertex 1.49905 20.5 7.8583
    endloop
  endfacet
  facet normal 0 -1 0
    outer loop
      vertex -2.47214 20.5 7.60845
      vertex 1.98952 20.5 7.74867
      vertex -1.98952 20.5 7.74867
    endloop
  endfacet
  facet normal 0 -1 0
    outer loop
      vertex -2.47214 20.5 7.60845
      vertex 2.47214 20.5 7.60845
      vertex 1.98952 20.5 7.74867
    endloop
  endfacet
  facet normal 0 -1 0
    outer loop
      vertex -2.945 20.5 7.43821
      vertex 2.47214 20.5 7.60845
      vertex -2.47214 20.5 7.60845
    endloop
  endfacet
  facet normal 0 -1 0
    outer loop
      vertex -2.945 20.5 7.43821
      vertex 2.945 20.5 7.43821
      vertex 2.47214 20.5 7.60845
    endloop
  endfacet
  facet normal 0 -1 0
    outer loop
      vertex -3.40623 20.5 7.23862
      vertex 2.945 20.5 7.43821
      vertex -2.945 20.5 7.43821
    endloop
  endfacet
  facet normal 0 -1 0
    outer loop
      vertex -3.40623 20.5 7.23862
      vertex 3.40623 20.5 7.23862
      vertex 2.945 20.5 7.43821
    endloop
  endfacet
  facet normal 0 -1 0
    outer loop
      vertex -3.85403 20.5 7.01045
      vertex 3.40623 20.5 7.23862
      vertex -3.40623 20.5 7.23862
    endloop
  endfacet
  facet normal 0 -1 0
    outer loop
      vertex -3.85403 20.5 7.01045
      vertex 3.85403 20.5 7.01045
      vertex 3.40623 20.5 7.23862
    endloop
  endfacet
  facet normal 0 -1 0
    outer loop
      vertex -4.28661 20.5 6.75462
      vertex 3.85403 20.5 7.01045
      vertex -3.85403 20.5 7.01045
    endloop
  endfacet
  facet normal 0 -1 0
    outer loop
      vertex -4.28661 20.5 6.75462
      vertex 4.28661 20.5 6.75462
      vertex 3.85403 20.5 7.01045
    endloop
  endfacet
  facet normal 0 -1 0
    outer loop
      vertex -4.70228 20.5 6.47214
      vertex 4.28661 20.5 6.75462
      vertex -4.28661 20.5 6.75462
    endloop
  endfacet
  facet normal 0 -1 0
    outer loop
      vertex -4.70228 20.5 6.47214
      vertex 4.70228 20.5 6.47214
      vertex 4.28661 20.5 6.75462
    endloop
  endfacet
  facet normal 0 -1 0
    outer loop
      vertex -5.09939 20.5 6.16411
      vertex 4.70228 20.5 6.47214
      vertex -4.70228 20.5 6.47214
    endloop
  endfacet
  facet normal 0 -1 0
    outer loop
      vertex -5.09939 20.5 6.16411
      vertex 5.09939 20.5 6.16411
      vertex 4.70228 20.5 6.47214
    endloop
  endfacet
  facet normal 0 -1 0
    outer loop
      vertex -5.47638 20.5 5.83175
      vertex 5.09939 20.5 6.16411
      vertex -5.09939 20.5 6.16411
    endloop
  endfacet
  facet normal 0 -1 0
    outer loop
      vertex -5.47638 20.5 5.83175
      vertex 5.47638 20.5 5.83175
      vertex 5.09939 20.5 6.16411
    endloop
  endfacet
  facet normal 0 -1 0
    outer loop
      vertex -5.83175 20.5 5.47638
      vertex 5.47638 20.5 5.83175
      vertex -5.47638 20.5 5.83175
    endloop
  endfacet
  facet normal 0 -1 0
    outer loop
      vertex -5.83175 20.5 5.47638
      vertex 5.83175 20.5 5.47638
      vertex 5.47638 20.5 5.83175
    endloop
  endfacet
  facet normal 0 -1 0
    outer loop
      vertex -6.16411 20.5 5.09939
      vertex 5.83175 20.5 5.47638
      vertex -5.83175 20.5 5.47638
    endloop
  endfacet
  facet normal 0 -1 0
    outer loop
      vertex -6.16411 20.5 5.09939
      vertex 6.16411 20.5 5.09939
      vertex 5.83175 20.5 5.47638
    endloop
  endfacet
  facet normal 0 -1 0
    outer loop
      vertex -6.47214 20.5 4.70228
      vertex 6.16411 20.5 5.09939
      vertex -6.16411 20.5 5.09939
    endloop
  endfacet
  facet normal 0 -1 0
    outer loop
      vertex -6.47214 20.5 4.70228
      vertex 6.47214 20.5 4.70228
      vertex 6.16411 20.5 5.09939
    endloop
  endfacet
  facet normal 0 -1 0
    outer loop
      vertex -6.75462 20.5 4.28661
      vertex 6.47214 20.5 4.70228
      vertex -6.47214 20.5 4.70228
    endloop
  endfacet
  facet normal 0 -1 0
    outer loop
      vertex -6.75462 20.5 4.28661
      vertex 6.75462 20.5 4.28661
      vertex 6.47214 20.5 4.70228
    endloop
  endfacet
  facet normal 0 -1 0
    outer loop
      vertex -7.01045 20.5 3.85403
      vertex 6.75462 20.5 4.28661
      vertex -6.75462 20.5 4.28661
    endloop
  endfacet
  facet normal 0 -1 0
    outer loop
      vertex -7.01045 20.5 3.85403
      vertex 7.01045 20.5 3.85403
      vertex 6.75462 20.5 4.28661
    endloop
  endfacet
  facet normal 0 -1 0
    outer loop
      vertex -7.23862 20.5 3.40623
      vertex 7.01045 20.5 3.85403
      vertex -7.01045 20.5 3.85403
    endloop
  endfacet
  facet normal 0 -1 0
    outer loop
      vertex -7.23862 20.5 3.40623
      vertex 7.23862 20.5 3.40623
      vertex 7.01045 20.5 3.85403
    endloop
  endfacet
  facet normal 0 -1 0
    outer loop
      vertex -7.43821 20.5 2.945
      vertex 7.23862 20.5 3.40623
      vertex -7.23862 20.5 3.40623
    endloop
  endfacet
  facet normal 0 -1 0
    outer loop
      vertex -7.43821 20.5 2.945
      vertex 7.43821 20.5 2.945
      vertex 7.23862 20.5 3.40623
    endloop
  endfacet
  facet normal 0 -1 0
    outer loop
      vertex -7.60845 20.5 2.47214
      vertex 7.43821 20.5 2.945
      vertex -7.43821 20.5 2.945
    endloop
  endfacet
  facet normal 0 -1 0
    outer loop
      vertex -7.60845 20.5 2.47214
      vertex 7.60845 20.5 2.47214
      vertex 7.43821 20.5 2.945
    endloop
  endfacet
  facet normal 0 -1 0
    outer loop
      vertex -7.74867 20.5 1.98952
      vertex 7.60845 20.5 2.47214
      vertex -7.60845 20.5 2.47214
    endloop
  endfacet
  facet normal 0 -1 0
    outer loop
      vertex -7.74867 20.5 1.98952
      vertex 7.74867 20.5 1.98952
      vertex 7.60845 20.5 2.47214
    endloop
  endfacet
  facet normal 0 -1 0
    outer loop
      vertex -7.8583 20.5 1.49905
      vertex 7.74867 20.5 1.98952
      vertex -7.74867 20.5 1.98952
    endloop
  endfacet
  facet normal 0 -1 0
    outer loop
      vertex -7.8583 20.5 1.49905
      vertex 7.8583 20.5 1.49905
      vertex 7.74867 20.5 1.98952
    endloop
  endfacet
  facet normal 0 -1 0
    outer loop
      vertex -7.93692 20.5 1.00267
      vertex 7.8583 20.5 1.49905
      vertex -7.8583 20.5 1.49905
    endloop
  endfacet
  facet normal 0 -1 0
    outer loop
      vertex -7.93692 20.5 1.00267
      vertex 7.93692 20.5 1.00267
      vertex 7.8583 20.5 1.49905
    endloop
  endfacet
  facet normal 0 -1 0
    outer loop
      vertex -7.98421 20.5 0.502324
      vertex 7.93692 20.5 1.00267
      vertex -7.93692 20.5 1.00267
    endloop
  endfacet
  facet normal 0 -1 0
    outer loop
      vertex -7.98421 20.5 0.502324
      vertex 7.98421 20.5 0.502324
      vertex 7.93692 20.5 1.00267
    endloop
  endfacet
  facet normal 0 -1 0
    outer loop
      vertex -8 20.5 1.20173e-015
      vertex 7.98421 20.5 0.502324
      vertex -7.98421 20.5 0.502324
    endloop
  endfacet
  facet normal 0 -1 0
    outer loop
      vertex -8 20.5 1.20173e-015
      vertex 8 20.5 2.22045e-016
      vertex 7.98421 20.5 0.502324
    endloop
  endfacet
  facet normal 0 -1 0
    outer loop
      vertex -7.98421 20.5 -0.502324
      vertex 8 20.5 2.22045e-016
      vertex -8 20.5 1.20173e-015
    endloop
  endfacet
  facet normal 0 -1 0
    outer loop
      vertex -7.98421 20.5 -0.502324
      vertex 7.98421 20.5 -0.502324
      vertex 8 20.5 2.22045e-016
    endloop
  endfacet
  facet normal 0 -1 0
    outer loop
      vertex -7.93692 20.5 -1.00267
      vertex 7.98421 20.5 -0.502324
      vertex -7.98421 20.5 -0.502324
    endloop
  endfacet
  facet normal 0 -1 0
    outer loop
      vertex -7.93692 20.5 -1.00267
      vertex 7.93692 20.5 -1.00267
      vertex 7.98421 20.5 -0.502324
    endloop
  endfacet
  facet normal 0 -1 0
    outer loop
      vertex -7.8583 20.5 -1.49905
      vertex 7.93692 20.5 -1.00267
      vertex -7.93692 20.5 -1.00267
    endloop
  endfacet
  facet normal 0 -1 0
    outer loop
      vertex -7.8583 20.5 -1.49905
      vertex 7.8583 20.5 -1.49905
      vertex 7.93692 20.5 -1.00267
    endloop
  endfacet
  facet normal 0 -1 0
    outer loop
      vertex -7.74867 20.5 -1.98952
      vertex 7.8583 20.5 -1.49905
      vertex -7.8583 20.5 -1.49905
    endloop
  endfacet
  facet normal 0 -1 0
    outer loop
      vertex -7.74867 20.5 -1.98952
      vertex 7.74867 20.5 -1.98952
      vertex 7.8583 20.5 -1.49905
    endloop
  endfacet
  facet normal 0 -1 0
    outer loop
      vertex -7.60845 20.5 -2.47214
      vertex 7.74867 20.5 -1.98952
      vertex -7.74867 20.5 -1.98952
    endloop
  endfacet
  facet normal 0 -1 0
    outer loop
      vertex -7.60845 20.5 -2.47214
      vertex 7.60845 20.5 -2.47214
      vertex 7.74867 20.5 -1.98952
    endloop
  endfacet
  facet normal 0 -1 0
    outer loop
      vertex -7.43821 20.5 -2.945
      vertex 7.60845 20.5 -2.47214
      vertex -7.60845 20.5 -2.47214
    endloop
  endfacet
  facet normal 0 -1 0
    outer loop
      vertex -7.43821 20.5 -2.945
      vertex 7.43821 20.5 -2.945
      vertex 7.60845 20.5 -2.47214
    endloop
  endfacet
  facet normal 0 -1 0
    outer loop
      vertex -7.23862 20.5 -3.40623
      vertex 7.43821 20.5 -2.945
      vertex -7.43821 20.5 -2.945
    endloop
  endfacet
  facet normal 0 -1 0
    outer loop
      vertex -7.23862 20.5 -3.40623
      vertex 7.23862 20.5 -3.40623
      vertex 7.43821 20.5 -2.945
    endloop
  endfacet
  facet normal 0 -1 0
    outer loop
      vertex -7.01045 20.5 -3.85403
      vertex 7.23862 20.5 -3.40623
      vertex -7.23862 20.5 -3.40623
    endloop
  endfacet
  facet normal 0 -1 0
    outer loop
      vertex -7.01045 20.5 -3.85403
      vertex 7.01045 20.5 -3.85403
      vertex 7.23862 20.5 -3.40623
    endloop
  endfacet
  facet normal 0 -1 0
    outer loop
      vertex -6.75462 20.5 -4.28661
      vertex 7.01045 20.5 -3.85403
      vertex -7.01045 20.5 -3.85403
    endloop
  endfacet
  facet normal 0 -1 0
    outer loop
      vertex -6.75462 20.5 -4.28661
      vertex 6.75462 20.5 -4.28661
      vertex 7.01045 20.5 -3.85403
    endloop
  endfacet
  facet normal 0 -1 0
    outer loop
      vertex -6.47214 20.5 -4.70228
      vertex 6.75462 20.5 -4.28661
      vertex -6.75462 20.5 -4.28661
    endloop
  endfacet
  facet normal 0 -1 0
    outer loop
      vertex -6.47214 20.5 -4.70228
      vertex 6.47214 20.5 -4.70228
      vertex 6.75462 20.5 -4.28661
    endloop
  endfacet
  facet normal 0 -1 0
    outer loop
      vertex -6.16411 20.5 -5.09939
      vertex 6.47214 20.5 -4.70228
      vertex -6.47214 20.5 -4.70228
    endloop
  endfacet
  facet normal 0 -1 0
    outer loop
      vertex -6.16411 20.5 -5.09939
      vertex 6.16411 20.5 -5.09939
      vertex 6.47214 20.5 -4.70228
    endloop
  endfacet
  facet normal 0 -1 0
    outer loop
      vertex -5.83175 20.5 -5.47638
      vertex 6.16411 20.5 -5.09939
      vertex -6.16411 20.5 -5.09939
    endloop
  endfacet
  facet normal 0 -1 0
    outer loop
      vertex -5.83175 20.5 -5.47638
      vertex 5.83175 20.5 -5.47638
      vertex 6.16411 20.5 -5.09939
    endloop
  endfacet
  facet normal 0 -1 0
    outer loop
      vertex -5.47638 20.5 -5.83175
      vertex 5.83175 20.5 -5.47638
      vertex -5.83175 20.5 -5.47638
    endloop
  endfacet
  facet normal 0 -1 0
    outer loop
      vertex -5.47638 20.5 -5.83175
      vertex 5.47638 20.5 -5.83175
      vertex 5.83175 20.5 -5.47638
    endloop
  endfacet
  facet normal 0 -1 0
    outer loop
      vertex -5.09939 20.5 -6.16411
      vertex 5.47638 20.5 -5.83175
      vertex -5.47638 20.5 -5.83175
    endloop
  endfacet
  facet normal 0 -1 0
    outer loop
      vertex -5.09939 20.5 -6.16411
      vertex 5.09939 20.5 -6.16411
      vertex 5.47638 20.5 -5.83175
    endloop
  endfacet
  facet normal 0 -1 0
    outer loop
      vertex -4.70228 20.5 -6.47214
      vertex 5.09939 20.5 -6.16411
      vertex -5.09939 20.5 -6.16411
    endloop
  endfacet
  facet normal 0 -1 0
    outer loop
      vertex -4.70228 20.5 -6.47214
      vertex 4.70228 20.5 -6.47214
      vertex 5.09939 20.5 -6.16411
    endloop
  endfacet
  facet normal 0 -1 0
    outer loop
      vertex -4.28661 20.5 -6.75462
      vertex 4.70228 20.5 -6.47214
      vertex -4.70228 20.5 -6.47214
    endloop
  endfacet
  facet normal 0 -1 0
    outer loop
      vertex -4.28661 20.5 -6.75462
      vertex 4.28661 20.5 -6.75462
      vertex 4.70228 20.5 -6.47214
    endloop
  endfacet
  facet normal 0 -1 0
    outer loop
      vertex -3.85403 20.5 -7.01045
      vertex 4.28661 20.5 -6.75462
      vertex -4.28661 20.5 -6.75462
    endloop
  endfacet
  facet normal 0 -1 0
    outer loop
      vertex -3.85403 20.5 -7.01045
      vertex 3.85403 20.5 -7.01045
      vertex 4.28661 20.5 -6.75462
    endloop
  endfacet
  facet normal 0 -1 0
    outer loop
      vertex -3.40623 20.5 -7.23862
      vertex 3.85403 20.5 -7.01045
      vertex -3.85403 20.5 -7.01045
    endloop
  endfacet
  facet normal 0 -1 0
    outer loop
      vertex -3.40623 20.5 -7.23862
      vertex 3.40623 20.5 -7.23862
      vertex 3.85403 20.5 -7.01045
    endloop
  endfacet
  facet normal 0 -1 0
    outer loop
      vertex -2.945 20.5 -7.43821
      vertex 3.40623 20.5 -7.23862
      vertex -3.40623 20.5 -7.23862
    endloop
  endfacet
  facet normal 0 -1 0
    outer loop
      vertex -2.945 20.5 -7.43821
      vertex 2.945 20.5 -7.43821
      vertex 3.40623 20.5 -7.23862
    endloop
  endfacet
  facet normal 0 -1 0
    outer loop
      vertex -2.47214 20.5 -7.60845
      vertex 2.945 20.5 -7.43821
      vertex -2.945 20.5 -7.43821
    endloop
  endfacet
  facet normal 0 -1 0
    outer loop
      vertex -2.47214 20.5 -7.60845
      vertex 2.47214 20.5 -7.60845
      vertex 2.945 20.5 -7.43821
    endloop
  endfacet
  facet normal 0 -1 0
    outer loop
      vertex -1.98952 20.5 -7.74867
      vertex 2.47214 20.5 -7.60845
      vertex -2.47214 20.5 -7.60845
    endloop
  endfacet
  facet normal 0 -1 0
    outer loop
      vertex -1.98952 20.5 -7.74867
      vertex 1.98952 20.5 -7.74867
      vertex 2.47214 20.5 -7.60845
    endloop
  endfacet
  facet normal 0 -1 0
    outer loop
      vertex -1.49905 20.5 -7.8583
      vertex 1.98952 20.5 -7.74867
      vertex -1.98952 20.5 -7.74867
    endloop
  endfacet
  facet normal 0 -1 0
    outer loop
      vertex -1.49905 20.5 -7.8583
      vertex 1.49905 20.5 -7.8583
      vertex 1.98952 20.5 -7.74867
    endloop
  endfacet
  facet normal 0 -1 0
    outer loop
      vertex -1.00267 20.5 -7.93692
      vertex 1.49905 20.5 -7.8583
      vertex -1.49905 20.5 -7.8583
    endloop
  endfacet
  facet normal 0 -1 0
    outer loop
      vertex -1.00267 20.5 -7.93692
      vertex 1.00267 20.5 -7.93692
      vertex 1.49905 20.5 -7.8583
    endloop
  endfacet
  facet normal 0 -1 0
    outer loop
      vertex -0.502324 20.5 -7.98421
      vertex 1.00267 20.5 -7.93692
      vertex -1.00267 20.5 -7.93692
    endloop
  endfacet
  facet normal 0 -1 0
    outer loop
      vertex -0.502324 20.5 -7.98421
      vertex 0.502324 20.5 -7.98421
      vertex 1.00267 20.5 -7.93692
    endloop
  endfacet
  facet normal -0 -1 0
    outer loop
      vertex 0.502324 20.5 -7.98421
      vertex -0.502324 20.5 -7.98421
      vertex -1.46953e-015 20.5 -8
    endloop
  endfacet
endsolid OpenSCAD_Model
